HIERARCHY
ROOT Hips
{
  OFFSET 5.84602e-005 68.8428 3.50346
  CHANNELS 6 Xposition Yposition Zposition Zrotation Xrotation Yrotation
  JOINT Spine
  {
    OFFSET 0 8.597 -4.6522
    CHANNELS 3 Zrotation Xrotation Yrotation
    JOINT Spine1
    {
      OFFSET 0 7.8454 0.4098
      CHANNELS 3 Zrotation Xrotation Yrotation
      JOINT Spine2
      {
        OFFSET 0 9.7078 -2.1609
        CHANNELS 3 Zrotation Xrotation Yrotation
        JOINT Neck
        {
          OFFSET 0 21.8761 -0.4549
          CHANNELS 3 Zrotation Xrotation Yrotation
          JOINT Head
          {
            OFFSET 0 12.3537 3.3602
            CHANNELS 3 Zrotation Xrotation Yrotation
            End Site
            {
              OFFSET 0.0001 18.9506 0.5657
            }
          }
        }
        JOINT LeftShoulder
        {
          OFFSET 2.2086 21.1115 7.2329
          CHANNELS 3 Zrotation Xrotation Yrotation
          JOINT LeftArm
          {
            OFFSET 13.1193 3.0282 -4.8998
            CHANNELS 3 Zrotation Xrotation Yrotation
            JOINT LeftForeArm
            {
              OFFSET 27.4081 -0.0973053 -0.2375
              CHANNELS 3 Zrotation Xrotation Yrotation
              JOINT LeftHand
              {
                OFFSET 22.8641 0.0662994 -0.1369
                CHANNELS 3 Zrotation Xrotation Yrotation
                JOINT LeftHandIndex1
                {
                  OFFSET 8.8614 0.775009 2.4612
                  CHANNELS 3 Zrotation Xrotation Yrotation
                  JOINT LeftHandIndex2
                  {
                    OFFSET 3.3146 -0.808304 0.5841
                    CHANNELS 3 Zrotation Xrotation Yrotation
                    JOINT LeftHandIndex3
                    {
                      OFFSET 2.2628 -0.552002 0.3989
                      CHANNELS 3 Zrotation Xrotation Yrotation
                      End Site
                      {
                        OFFSET 1.6102 -0.4807 0.2612
                      }
                    }
                  }
                }
                JOINT LeftHandMiddle1
                {
                  OFFSET 8.9937 0.895004 0.2143
                  CHANNELS 3 Zrotation Xrotation Yrotation
                  JOINT LeftHandMiddle2
                  {
                    OFFSET 4.0984 0.0113983 -0.0242
                    CHANNELS 3 Zrotation Xrotation Yrotation
                    JOINT LeftHandMiddle3
                    {
                      OFFSET 2.2716 0.00689697 -0.0138001
                      CHANNELS 3 Zrotation Xrotation Yrotation
                      End Site
                      {
                        OFFSET 2.0404 -0.1441 0.0027
                      }
                    }
                  }
                }
                JOINT LeftHandRing1
                {
                  OFFSET 8.5234 0.597198 -2.0164
                  CHANNELS 3 Zrotation Xrotation Yrotation
                  JOINT LeftHandRing2
                  {
                    OFFSET 3.7188 -0.188293 -0.2328
                    CHANNELS 3 Zrotation Xrotation Yrotation
                    JOINT LeftHandRing3
                    {
                      OFFSET 2.1191 -0.106598 -0.1332
                      CHANNELS 3 Zrotation Xrotation Yrotation
                      End Site
                      {
                        OFFSET 1.8737 -0.2304 -0.0886
                      }
                    }
                  }
                }
                JOINT LeftHandPinky1
                {
                  OFFSET 7.9094 -0.601089 -3.4825
                  CHANNELS 3 Zrotation Xrotation Yrotation
                  JOINT LeftHandPinky2
                  {
                    OFFSET 2.2874 -0.477005 -0.6314
                    CHANNELS 3 Zrotation Xrotation Yrotation
                    JOINT LeftHandPinky3
                    {
                      OFFSET 1.6774 -0.349396 -0.4633
                      CHANNELS 3 Zrotation Xrotation Yrotation
                      End Site
                      {
                        OFFSET 1.4888 -0.4091 -0.3416
                      }
                    }
                  }
                }
                JOINT LeftHandThumb1
                {
                  OFFSET 1.833 -1.3875 1.3896
                  CHANNELS 3 Zrotation Xrotation Yrotation
                  JOINT LeftHandThumb2
                  {
                    OFFSET 3.4129 -1.121 2.5732
                    CHANNELS 3 Zrotation Xrotation Yrotation
                    JOINT LeftHandThumb3
                    {
                      OFFSET 2.2474 -0.804199 1.6192
                      CHANNELS 3 Zrotation Xrotation Yrotation
                      End Site
                      {
                        OFFSET 1.6527 -0.5689 1.1317
                      }
                    }
                  }
                }
              }
            }
          }
        }
        JOINT RightShoulder
        {
          OFFSET -2.2086 21.1115 7.2329
          CHANNELS 3 Zrotation Xrotation Yrotation
          JOINT RightArm
          {
            OFFSET -13.1216 3.0287 -4.9007
            CHANNELS 3 Zrotation Xrotation Yrotation
            JOINT RightForeArm
            {
              OFFSET -27.4081 -0.0973053 -0.2375
              CHANNELS 3 Zrotation Xrotation Yrotation
              JOINT RightHand
              {
                OFFSET -22.8641 0.0664063 -0.1369
                CHANNELS 3 Zrotation Xrotation Yrotation
                JOINT RightHandIndex1
                {
                  OFFSET -8.8614 0.774994 2.4612
                  CHANNELS 3 Zrotation Xrotation Yrotation
                  JOINT RightHandIndex2
                  {
                    OFFSET -3.3146 -0.808304 0.5841
                    CHANNELS 3 Zrotation Xrotation Yrotation
                    JOINT RightHandIndex3
                    {
                      OFFSET -2.2628 -0.552002 0.3989
                      CHANNELS 3 Zrotation Xrotation Yrotation
                      End Site
                      {
                        OFFSET -1.6102 -0.4807 0.2612
                      }
                    }
                  }
                }
                JOINT RightHandMiddle1
                {
                  OFFSET -8.9937 0.894989 0.2143
                  CHANNELS 3 Zrotation Xrotation Yrotation
                  JOINT RightHandMiddle2
                  {
                    OFFSET -4.0984 0.0113983 -0.0242
                    CHANNELS 3 Zrotation Xrotation Yrotation
                    JOINT RightHandMiddle3
                    {
                      OFFSET -2.2716 0.00691223 -0.0138001
                      CHANNELS 3 Zrotation Xrotation Yrotation
                      End Site
                      {
                        OFFSET -2.0404 -0.1441 0.0027
                      }
                    }
                  }
                }
                JOINT RightHandRing1
                {
                  OFFSET -8.5234 0.597198 -2.0164
                  CHANNELS 3 Zrotation Xrotation Yrotation
                  JOINT RightHandRing2
                  {
                    OFFSET -3.7188 -0.188309 -0.2328
                    CHANNELS 3 Zrotation Xrotation Yrotation
                    JOINT RightHandRing3
                    {
                      OFFSET -2.1191 -0.106598 -0.1332
                      CHANNELS 3 Zrotation Xrotation Yrotation
                      End Site
                      {
                        OFFSET -1.8737 -0.2304 -0.0886
                      }
                    }
                  }
                }
                JOINT RightHandPinky1
                {
                  OFFSET -7.9094 -0.601105 -3.4825
                  CHANNELS 3 Zrotation Xrotation Yrotation
                  JOINT RightHandPinky2
                  {
                    OFFSET -2.2874 -0.477005 -0.6314
                    CHANNELS 3 Zrotation Xrotation Yrotation
                    JOINT RightHandPinky3
                    {
                      OFFSET -1.6774 -0.349396 -0.4633
                      CHANNELS 3 Zrotation Xrotation Yrotation
                      End Site
                      {
                        OFFSET -1.4888 -0.4091 -0.3416
                      }
                    }
                  }
                }
                JOINT RightHandThumb1
                {
                  OFFSET -1.833 -1.38751 1.3896
                  CHANNELS 3 Zrotation Xrotation Yrotation
                  JOINT RightHandThumb2
                  {
                    OFFSET -3.41299 -1.12099 2.5732
                    CHANNELS 3 Zrotation Xrotation Yrotation
                    JOINT RightHandThumb3
                    {
                      OFFSET -2.24741 -0.804108 1.6192
                      CHANNELS 3 Zrotation Xrotation Yrotation
                      End Site
                      {
                        OFFSET -1.6527 -0.5689 1.1317
                      }
                    }
                  }
                }
              }
            }
          }
        }
      }
    }
  }
  JOINT RightUpLeg
  {
    OFFSET -9.1966 3.8861 -0.7581
    CHANNELS 3 Zrotation Xrotation Yrotation
    JOINT RightLeg
    {
      OFFSET -0.7359 -41.0265 0
      CHANNELS 3 Zrotation Xrotation Yrotation
      JOINT RightFoot
      {
        OFFSET 0 -40.2855 0
        CHANNELS 3 Zrotation Xrotation Yrotation
        JOINT RightToeBase
        {
          OFFSET 0 -5.6122 11.7359
          CHANNELS 3 Zrotation Xrotation Yrotation
          End Site
          {
            OFFSET 0 0 7.8731
          }
        }
      }
    }
  }
  JOINT LeftUpLeg
  {
    OFFSET 9.1965 3.8864 -0.7581
    CHANNELS 3 Zrotation Xrotation Yrotation
    JOINT LeftLeg
    {
      OFFSET 0.7359 -41.0268 0
      CHANNELS 3 Zrotation Xrotation Yrotation
      JOINT LeftFoot
      {
        OFFSET 0 -40.2855 0
        CHANNELS 3 Zrotation Xrotation Yrotation
        JOINT LeftToeBase
        {
          OFFSET 0 -5.6122 11.7359
          CHANNELS 3 Zrotation Xrotation Yrotation
          End Site
          {
            OFFSET 0 0 7.8731
          }
        }
      }
    }
  }
}
MOTION
Frames:	5
Frame Time:	0.0333333
5.84602e-005 68.8428 3.50346 0 0 -0 0 0 -0 0 0 -0 0 0 -0 0 0 -0 0 0 -0 0 0 -0 0 0 -0 0 0 -0 0 0 -0 0 0 -0 0 0 -0 0 0 -0 0 0 -0 -0.0146107 -8.87603e-005 -2.63497e-007 2.99804e-018 -2.42657e-020 -1.42182e-022 0 0 -0 -0.0187562 -0.001176 5.858e-005 5.06224e-018 3.88251e-019 1.21329e-020 0 0 -0 -0.012269 -0.00324817 0.000675346 -1.74678e-018 3.88251e-019 -0 0 0 -0 0 0 -0 0 0 -0 0 0 -0 0 0 -0 0 0 -0 0 0 -0 0 0 -0 0 0 -0 0 0 -0 0 0 -0 0.0149955 -9.10982e-005 2.64101e-007 -9.69331e-018 1.21329e-020 -4.7394e-023 0 0 -0 0.0189956 -0.00119102 -5.96516e-005 -5.41541e-019 0 2.42657e-020 0 0 -0 0.0122698 -0.00324857 -0.000673756 -2.00796e-019 0 -1.94126e-019 0 0 -0 0 0 -0 0 0 -0 3.39842 1.33031 -0.0637918 -5.65207e-008 0.834868 -0.000436188 -3.39935 -2.16518 -0.0642563 -8.89002e-024 -1.18485e-023 -1.48106e-024 -3.39844 1.35642 0.0640283 -3.18788e-007 0.782166 -0.000588827 3.39931 -2.13858 0.0634662 1.1399e-023 0 -0 
-0.632801 61.2437 2.58371 0 9.05308 -0 -0.671419 -1.28912 -0.251292 -1.349 -2.5752 -0.517877 -1.349 -2.5752 -0.517876 0.13214 0.177969 -0.00157107 3.23114e-007 0.211627 -2.3897e-009 3.62059 10.6428 -3.79444 -56.271 -1.34994 -15.747 -18.8929 27.873 -74.9536 -9.00787 1.38953 9.77021 1.0575e-006 -7.74212e-007 -1.09181e-006 -1.27222e-014 -6.36111e-015 -6.36111e-015 -6.36111e-015 -7.95139e-015 -7.95139e-015 1.0575e-006 -7.74212e-007 -1.09181e-006 -0.0146373 -9.81142e-005 1.05394e-006 -6.36111e-015 0 1.59028e-015 1.0575e-006 -7.74212e-007 -1.09181e-006 -0.0187489 -0.00117646 6.30505e-005 3.18055e-015 -4.77083e-015 -9.54166e-015 1.0575e-006 -7.74212e-007 -1.09181e-006 -0.0122625 -0.00325138 0.000683362 3.18055e-015 -1.27222e-014 -9.54166e-015 1.0575e-006 -7.74212e-007 -1.09181e-006 -1.27222e-014 -6.36111e-015 -6.36111e-015 -6.36111e-015 -7.95139e-015 -7.95139e-015 -3.96547 10.2505 3.28156 55.995 -1.47336 15.8796 18.7821 27.5112 74.1775 10.7485 1.54233 -8.79925 8.57391e-007 6.90893e-007 -8.43885e-007 -3.06655e-006 -7.59509e-007 -1.13679e-006 -2.47297e-006 -2.81198e-007 -1.72102e-006 8.57391e-007 6.90893e-007 -8.43885e-007 0.0150146 -9.28729e-005 1.69935e-006 -2.4732e-006 -2.81422e-007 -1.72098e-006 8.57391e-007 6.90893e-007 -8.43885e-007 0.0189798 -0.00119353 -6.12892e-005 -2.47328e-006 -2.81467e-007 -1.72094e-006 8.57391e-007 6.90893e-007 -8.43885e-007 0.0122703 -0.00324864 -0.000670244 -1.72813e-006 -2.37304e-007 -8.90881e-007 8.57391e-007 6.90893e-007 -8.43885e-007 -3.06655e-006 -7.59509e-007 -1.13679e-006 -2.47297e-006 -2.81198e-007 -1.72102e-006 -28.5717 -40.2543 -38.6609 -149.161 39.5146 147.312 11.8893 27.1957 14.1607 -1.00743e-006 2.84296e-006 -1.47571e-006 24.6635 -38.4576 37.0868 149.455 39.1894 -147.473 -9.78568 27.8861 -13.7776 6.34563e-008 -1.19483e-006 7.50835e-006 
-0.595912 61.7755 3.45968 0 6.67428 -0 -0.631149 -0.595252 -0.240828 -1.2649 -1.1878 -0.488236 -1.2649 -1.1878 -0.488237 0.179157 0.240638 -0.00661714 4.16158e-007 0.286268 1.54876e-007 3.63761 8.67321 -3.91004 -52.9403 -1.27616 -14.8203 -19.273 29.3991 -70.1894 -8.39762 0.895069 8.75818 7.42683e-007 -5.92194e-007 -7.77163e-007 3.5026e-006 -1.05971e-006 6.64324e-007 3.37344e-006 -9.56723e-007 7.99483e-007 7.42683e-007 -5.92194e-007 -7.77163e-007 -0.0146181 -8.94155e-005 -5.69824e-006 2.34424e-006 -1.15336e-006 -3.88972e-008 7.42683e-007 -5.92194e-007 -7.77163e-007 -0.0187796 -0.00117701 5.62504e-005 3.37371e-006 -9.56838e-007 7.99291e-007 7.42683e-007 -5.92194e-007 -7.77163e-007 -0.0122283 -0.00324016 0.000680469 4.40282e-006 -7.59908e-007 1.63743e-006 7.42683e-007 -5.92194e-007 -7.77163e-007 3.5026e-006 -1.05971e-006 6.64324e-007 3.37344e-006 -9.56723e-007 7.99483e-007 -3.95657 8.32069 3.46893 52.6785 -1.39293 14.9449 19.1636 28.9815 69.4548 9.95988 1.04558 -7.89778 1.27884e-007 1.12188e-007 -1.28781e-007 2.17402e-006 1.9072e-006 -2.18927e-006 1.5346e-006 1.34626e-006 -1.54537e-006 1.27884e-007 1.12188e-007 -1.28781e-007 0.0150368 -8.82676e-005 1.74291e-006 1.53459e-006 1.34606e-006 -1.54554e-006 1.27884e-007 1.12188e-007 -1.28781e-007 0.0189749 -0.0011922 -6.70169e-005 1.07303e-006 1.41471e-006 -2.12101e-006 1.27884e-007 1.12188e-007 -1.28781e-007 0.01227 -0.00325181 -0.000681633 1.53454e-006 1.34611e-006 -1.54555e-006 1.27884e-007 1.12188e-007 -1.28781e-007 2.17402e-006 1.9072e-006 -2.18927e-006 1.5346e-006 1.34626e-006 -1.54537e-006 -25.3572 -35.5894 -34.9419 -144.384 47.2437 145.085 10.4969 25.3221 13.6221 -3.73875e-006 3.30713e-007 3.89057e-007 21.8905 -33.8063 33.6572 144.686 46.9751 -145.284 -8.59684 25.9762 -13.2012 -7.25886e-007 -1.2139e-007 4.28063e-007 
-0.596016 61.853 4.23712 0 4.92653 -0 -0.634907 -0.00131928 -0.235475 -1.26982 9.22136e-005 -0.470954 -1.26982 8.98469e-005 -0.470954 0.231071 0.309893 -0.0114871 7.04975e-009 0.368524 -9.44902e-008 3.88455 7.39888 -4.23 -52.9403 -1.27616 -14.8203 -19.1859 29.1343 -69.5491 -8.33695 0.502621 8.34584 2.41323e-008 -1.93668e-008 -2.53812e-008 3.05676e-007 -2.45313e-007 -3.21495e-007 -3.37852e-007 2.71135e-007 3.55337e-007 2.41323e-008 -1.93668e-008 -2.53812e-008 -0.0145912 -9.03355e-005 -6.74595e-007 -3.37852e-007 2.7109e-007 3.55372e-007 2.41323e-008 -1.93668e-008 -2.53812e-008 -0.0188137 -0.00118111 6.11512e-005 -3.37848e-007 2.71077e-007 3.55385e-007 2.41323e-008 -1.93668e-008 -2.53812e-008 -0.0122552 -0.00323816 0.000669022 -3.3784e-007 2.71099e-007 3.55376e-007 2.41323e-008 -1.93668e-008 -2.53812e-008 3.05676e-007 -2.45313e-007 -3.21495e-007 -3.37852e-007 2.71135e-007 3.55337e-007 -4.19095 7.06274 3.82734 52.6785 -1.39293 14.9449 19.078 28.7354 68.8489 9.82707 0.659299 -7.53643 -3.82218e-007 -3.37684e-007 3.86765e-007 -1.78369e-006 -1.57586e-006 1.8049e-006 -7.64436e-007 -6.75368e-007 7.7353e-007 -3.82218e-007 -3.37684e-007 3.86765e-007 0.0149967 -8.9158e-005 4.78198e-006 -7.64431e-007 -6.75267e-007 7.73619e-007 -3.82218e-007 -3.37684e-007 3.86765e-007 0.0189848 -0.0011955 -6.89004e-005 -7.64422e-007 -6.75241e-007 7.7365e-007 -3.82218e-007 -3.37684e-007 3.86765e-007 0.0123032 -0.00325894 -0.000672494 -7.64407e-007 -6.75291e-007 7.73624e-007 -3.82218e-007 -3.37684e-007 3.86765e-007 -1.78369e-006 -1.57586e-006 1.8049e-006 -7.64436e-007 -6.75368e-007 7.7353e-007 -25.5908 -32.92 -34.6193 -143.7 47.7884 144.652 9.65774 25.165 14.0588 -7.0876e-007 1.23906e-007 4.51875e-007 22.1561 -31.1162 33.3929 143.98 47.5459 -144.839 -7.82714 25.8252 -13.587 8.28689e-007 2.49441e-006 1.39978e-007 
-0.59615 61.9374 5.01227 0 3.17578 -0 -0.638199 0.600609 -0.22983 -1.2741 1.204 -0.452996 -1.2741 1.204 -0.452996 0.282909 0.379117 -0.0164253 -8.77013e-007 0.450789 -1.40873e-007 4.12387 6.12185 -4.54392 -52.9403 -1.27616 -14.8203 -19.0956 28.8703 -68.9099 -8.2791 0.109693 7.93384 -5.20868e-007 4.20816e-007 5.50905e-007 -4.00668e-008 3.23705e-008 4.23773e-008 -4.12497e-006 1.57588e-006 1.65931e-008 -5.20868e-007 4.20816e-007 5.50905e-007 -0.0146048 -9.3239e-005 1.09901e-005 -4.12519e-006 1.57588e-006 1.67975e-008 -5.20868e-007 4.20816e-007 5.50905e-007 -0.0187451 -0.00117032 6.18494e-005 -3.0982e-006 1.81358e-006 8.04141e-007 -5.20868e-007 4.20816e-007 5.50905e-007 -0.0123152 -0.00326386 0.00067859 -4.12514e-006 1.57585e-006 1.68898e-008 -5.20868e-007 4.20816e-007 5.50905e-007 -4.00668e-008 3.23705e-008 4.23773e-008 -4.12497e-006 1.57588e-006 1.65931e-008 -4.41708 5.80203 4.17999 52.6785 -1.39293 14.9449 18.9896 28.4901 68.2439 9.69669 0.272119 -7.17594 -1.32417e-031 -1.59028e-015 -4.77083e-015 -5.07585e-007 -4.51682e-007 5.16412e-007 -3.80688e-007 -3.38761e-007 3.87309e-007 -1.32417e-031 -1.59028e-015 -4.77083e-015 0.0150146 -9.2575e-005 -3.21408e-006 -3.80686e-007 -3.38711e-007 3.87353e-007 -1.32417e-031 -1.59028e-015 -4.77083e-015 0.0189965 -0.00119913 -6.68421e-005 -3.80681e-007 -3.38698e-007 3.87369e-007 -1.32417e-031 -1.59028e-015 -4.77083e-015 0.0122738 -0.00324867 -0.000678328 -3.80674e-007 -3.38723e-007 3.87356e-007 -1.32417e-031 -1.59028e-015 -4.77083e-015 -5.07585e-007 -4.51682e-007 5.16412e-007 -3.80688e-007 -3.38761e-007 3.87309e-007 -25.8314 -30.242 -34.2903 -143.001 48.3294 144.202 8.82192 25.0027 14.492 3.18055e-015 3.18055e-015 -1.59028e-015 22.4253 -28.4165 33.1192 143.259 48.113 -144.376 -7.06048 25.6699 -13.9695 3.75985e-006 3.53525e-007 -2.61772e-007 
